<svg width="24" height="19" viewBox="0 0 24 19" fill="none" xmlns="http://www.w3.org/2000/svg">
<path d="M22 0.5H2C0.9 0.5 0 1.4 0 2.5V16.5C0 17.6 0.9 18.5 2 18.5H22C23.1 18.5 23.99 17.6 23.99 16.5L24 2.5C24 1.4 23.1 0.5 22 0.5ZM22 16.5H2V2.5H22V16.5ZM19.01 15.49L21 13.5L19.49 11.5H17.85C17.63 10.87 17.5 10.2 17.5 9.5C17.5 8.8 17.63 8.13 17.85 7.5H19.49L21 5.5L19.01 3.51C17.7 4.49 16.73 5.88 16.28 7.5C16.1 8.14 16 8.81 16 9.5C16 10.19 16.1 10.86 16.28 11.5C16.73 13.11 17.7 14.51 19.01 15.49ZM9 9.5C10.65 9.5 12 8.15 12 6.5C12 4.85 10.65 3.5 9 3.5C7.35 3.5 6 4.85 6 6.5C6 8.15 7.35 9.5 9 9.5ZM9 5.5C9.55 5.5 10 5.95 10 6.5C10 7.05 9.55 7.5 9 7.5C8.45 7.5 8 7.05 8 6.5C8 5.95 8.45 5.5 9 5.5ZM15 14.09C15 11.59 11.03 10.51 9 10.51C6.97 10.51 3 11.59 3 14.09V15.5H15V14.09ZM5.48 13.5C6.22 13 7.7 12.5 9 12.5C10.3 12.5 11.77 12.99 12.52 13.5H5.48Z" fill="#073A41"/>
</svg>
