<svg width="22" height="21" viewBox="0 0 22 21" fill="none" xmlns="http://www.w3.org/2000/svg">
<path d="M22 10.5L19.56 7.72004L19.9 4.04004L16.29 3.22004L14.4 0.0400391L11 1.50004L7.6 0.0400391L5.71 3.22004L2.1 4.03004L2.44 7.71004L0 10.5L2.44 13.28L2.1 16.97L5.71 17.79L7.6 20.97L11 19.5L14.4 20.96L16.29 17.78L19.9 16.96L19.56 13.28L22 10.5ZM17.49 12.61L17.75 15.4L15.01 16.02L13.58 18.43L11 17.32L8.42 18.43L6.99 16.02L4.25 15.4L4.51 12.6L2.66 10.5L4.51 8.38004L4.25 5.60004L6.99 4.99004L8.42 2.58004L11 3.68004L13.58 2.57004L15.01 4.98004L17.75 5.60004L17.49 8.39004L19.34 10.5L17.49 12.61ZM10 13.5H12V15.5H10V13.5ZM10 5.50004H12V11.5H10V5.50004Z" fill="#073A41"/>
</svg>
