<svg width="15" height="14" viewBox="0 0 15 14" fill="none" xmlns="http://www.w3.org/2000/svg">
<path d="M10.3674 7.66668C10.8674 7.66668 11.3074 7.39334 11.5341 6.98001L13.9208 2.65334C14.1674 2.21334 13.8474 1.66668 13.3408 1.66668H3.47409L2.84742 0.333344H0.667419V1.66668H2.00075L4.40075 6.72668L3.50075 8.35334C3.01409 9.24668 3.65409 10.3333 4.66742 10.3333H12.6674V9.00001H4.66742L5.40075 7.66668H10.3674ZM4.10742 3.00001H12.2074L10.3674 6.33334H5.68742L4.10742 3.00001ZM4.66742 11C3.93409 11 3.34075 11.6 3.34075 12.3333C3.34075 13.0667 3.93409 13.6667 4.66742 13.6667C5.40075 13.6667 6.00075 13.0667 6.00075 12.3333C6.00075 11.6 5.40075 11 4.66742 11ZM11.3341 11C10.6008 11 10.0074 11.6 10.0074 12.3333C10.0074 13.0667 10.6008 13.6667 11.3341 13.6667C12.0674 13.6667 12.6674 13.0667 12.6674 12.3333C12.6674 11.6 12.0674 11 11.3341 11Z" fill="#0D717F"/>
</svg>
