<svg width="524" height="99" viewBox="0 0 524 99" fill="none" xmlns="http://www.w3.org/2000/svg">
<g clip-path="url(#clip0_3311_81194)">
<path d="M97.5297 0.918869L0 99H5.83638L103.366 0.918869H97.5297Z" fill="#EA8215"/>
<path d="M149.939 54.4796C142.028 54.4796 135.303 51.8713 129.763 46.7138C124.193 41.4674 121.379 35.1539 121.379 27.7141C121.379 20.3039 124.134 13.9608 129.674 8.71437C135.244 3.46796 141.94 0.829941 149.82 0.829941C157.701 0.829941 164.426 3.40868 169.996 8.62545C175.595 13.8126 178.38 20.1557 178.409 27.5659C178.409 28.218 178.35 29.2257 178.202 30.6189H168.692C168.84 29.1368 168.899 28.129 168.899 27.5955C168.899 22.7937 167.033 18.7033 163.3 15.3243C159.597 11.9452 155.094 10.2557 149.85 10.2557C144.606 10.2557 140.132 11.9749 136.429 15.3835C132.726 18.7922 130.889 22.8826 130.889 27.6844C130.889 32.4269 132.755 36.5174 136.399 39.8964C140.132 43.2458 144.635 44.9353 149.909 44.965C157.819 44.965 164.544 47.5734 170.084 52.7308C175.684 57.9772 178.469 64.2907 178.498 71.7305C178.498 79.1407 175.743 85.4838 170.203 90.7302C164.663 95.9766 157.938 98.6147 150.057 98.6147C142.177 98.6147 135.451 96.0359 129.882 90.8192C124.312 85.6024 121.497 79.2889 121.497 71.8491C121.497 71.2266 121.557 70.1892 121.705 68.7961H131.215C131.096 70.2485 131.037 71.2859 131.037 71.8195C131.037 76.6213 132.903 80.7117 136.636 84.0907C140.369 87.4698 144.843 89.1593 150.087 89.1593C155.331 89.1593 159.804 87.4401 163.507 84.0314C167.211 80.6227 169.048 76.5323 169.048 71.7305C169.048 66.988 167.181 62.9272 163.507 59.5186C159.804 56.1692 155.301 54.5093 149.998 54.4796H149.939Z" fill="#00657E"/>
<path d="M183.92 66.6323L183.742 0.770655H193.252L193.43 66.6027C193.43 72.7976 195.652 78.0736 200.037 82.4308C204.421 86.788 209.695 88.9518 215.916 88.9518C222.108 88.9518 227.382 86.7287 231.737 82.3419C236.092 77.9551 238.255 72.679 238.255 66.4841L238.077 0.622452H247.587L247.765 66.4545C247.765 75.2578 244.683 82.7569 238.462 89.0111C232.24 95.2653 224.745 98.4072 215.946 98.4368C207.147 98.4368 199.651 95.3542 193.371 89.1296C187.12 82.9051 183.979 75.406 183.95 66.6027L183.92 66.6323Z" fill="#00657E"/>
<path d="M289.715 0.474245L312.676 80.0003L335.103 0.355682H343.991L372.136 98.0515H362.241L339.576 19.6221L317.09 98.1997H308.202L285.331 19.7704L263.081 98.3479H253.157L280.828 0.503886H289.715V0.474245Z" fill="#00657E"/>
<path d="M434.292 0.118561V9.60359L386.801 9.72215L386.89 40.9635L434.41 40.8449V50.3596L386.919 50.4781L387.008 88.5072L434.529 88.3886V97.9033L377.528 98.0515L377.261 0.266764L434.262 0.118561H434.292Z" fill="#00657E"/>
<path d="M107.099 98.7332L9.33228 98.9704L106.832 0.918869L107.099 98.7332Z" fill="#00657E"/>
<path d="M515.053 20.6596C513.72 23.6829 511.231 26.0542 508.15 27.2991C512.357 33.5829 514.49 40.756 514.52 48.8183C514.52 59.726 510.727 69.0332 503.084 76.7102C495.44 84.4168 486.138 88.2701 475.265 88.2997L449.46 88.359L449.253 9.57395L475.057 9.51467C480.894 9.51467 486.256 10.6114 491.174 12.8048C491.915 9.51467 493.929 6.6988 496.685 4.92036C490.108 1.65988 482.908 0 474.998 0L439.684 0.0889222L439.95 97.8736L475.265 97.7847C488.745 97.7551 500.24 92.9533 509.779 83.3497C519.289 73.7757 524.03 62.2455 524 48.759C524 38.1476 520.949 28.7811 515.023 20.6299L515.053 20.6596Z" fill="#00657E"/>
<path d="M513.749 15.5021C513.749 21.1635 509.187 25.7874 503.528 25.7874C497.87 25.7874 493.248 21.1931 493.248 15.5317C493.248 9.87037 497.81 5.24641 503.499 5.24641C509.157 5.24641 513.749 9.81108 513.779 15.5021H513.749Z" fill="#EA8215"/>
</g>
<defs>
<clipPath id="clip0_3311_81194">
<rect width="524" height="99" fill="white"/>
</clipPath>
</defs>
</svg>
